<svg width="24" height="24" viewBox="0 0 24 24" fill="none" xmlns="http://www.w3.org/2000/svg">
<path d="M10.94 7.136L13.786 4.505C15.459 2.832 19.023 1.977 21.999 2C21.999 5.5 21.168 8.541 19.495 10.214L16.864 13.06C16.614 13.331 16.533 13.718 16.654 14.067L17.088 15.316C17.34 16.041 17.155 16.845 16.613 17.387L15.499 18.5L5.5 8.5L6.614 7.387C7.156 6.845 7.96 6.66 8.684 6.912L9.933 7.346C10.281 7.467 10.669 7.386 10.94 7.136Z" stroke="#64748B" stroke-width="1.5" stroke-linejoin="round"/>
<path d="M17.492 6.494L17.499 6.5" stroke="#64748B" stroke-width="2" stroke-linecap="round" stroke-linejoin="round"/>
<path d="M2 22L8 16M8 22L11 19M2 16L5 13" stroke="#64748B" stroke-width="1.5" stroke-linecap="round"/>
</svg>