<svg width="24" height="24" viewBox="0 0 24 24" fill="none" xmlns="http://www.w3.org/2000/svg">
<path d="M7 15C5.34315 15 4 16.3431 4 18C4 19.6569 5.34315 21 7 21C8.65685 21 10 19.6569 10 18C10 16.3431 8.65685 15 7 15Z" stroke="#64748B" stroke-width="1.5" stroke-linecap="round" stroke-linejoin="round"/>
<path d="M17 15C15.3431 15 14 16.3431 14 18C14 19.6569 15.3431 21 17 21C18.6569 21 20 19.6569 20 18C20 16.3431 18.6569 15 17 15Z" stroke="#64748B" stroke-width="1.5" stroke-linecap="round" stroke-linejoin="round"/>
<path d="M14 17H10" stroke="#64748B" stroke-width="1.5" stroke-linecap="round" stroke-linejoin="round"/>
<path d="M22 13C19.543 11.773 15.973 11 12 11C8.027 11 4.457 11.773 2 13" stroke="#64748B" stroke-width="1.5" stroke-linecap="round" stroke-linejoin="round"/>
<path d="M5 12L6.017 4.696C6.228 3.179 8.055 2.476 9.265 3.445C11 5 13 5 14.735 3.445C15.945 2.476 17.771 3.179 17.983 4.696L19 12" stroke="#64748B" stroke-width="1.5" stroke-linejoin="round"/>
</svg>
