<svg id="vector" xmlns="http://www.w3.org/2000/svg" width="24" height="24" viewBox="0 0 24 24"><path fill="#64748B" d="M12.5,8L10,12H14L11.5,16" fill-opacity="0" stroke-linejoin="round" stroke-linecap="round" stroke="#64748B" stroke-width="1.5" id="path_0"/><path fill="#64748B" d="M2,10.033V13.967C4.857,13.967 6.714,17.07 5.268,19.533L8.732,21.5C9.464,20.253 10.732,19.534 12,19.533C13.268,19.534 14.536,20.253 15.268,21.5L18.732,19.533C17.286,17.07 19.143,13.967 22,13.967V10.033C19.143,10.033 17.284,6.93 18.73,4.467L15.266,2.5C14.534,3.747 13.267,4.5 12,4.5C10.733,4.5 9.466,3.747 8.734,2.5L5.27,4.467C6.716,6.93 4.857,10.033 2,10.033Z" fill-opacity="0" stroke-linejoin="round" stroke-linecap="round" stroke="#64748B" stroke-width="1.5" id="path_1"/></svg>