<svg id="vector" xmlns="http://www.w3.org/2000/svg" width="24" height="24" viewBox="0 0 24 24"><path fill="#64748B" d="M15.5,2.5H19.5C20.605,2.5 21.5,3.395 21.5,4.5V8.5M15.5,21.5H19.5C20.605,21.5 21.5,20.605 21.5,19.5V15.5M8.5,2.5H4.5C3.395,2.5 2.5,3.395 2.5,4.5V8.5M2.5,15.5V19.5C2.5,20.605 3.395,21.5 4.5,21.5H8.5" fill-opacity="0" stroke-linejoin="round" stroke-linecap="round" stroke="#64748B" stroke-width="1.5" id="path_0"/><path fill="#64748B" d="M17,6H7C6.448,6 6,6.448 6,7V17C6,17.552 6.448,18 7,18H17C17.552,18 18,17.552 18,17V7C18,6.448 17.552,6 17,6Z" fill-opacity="0" stroke-linejoin="round" stroke-linecap="round" stroke="#64748B" stroke-width="1.5" id="path_1"/><path fill="#64748B" d="M18,15L14.5,11L11,15L9,13L6,16" fill-opacity="0" stroke-linejoin="round" stroke-linecap="round" stroke="#64748B" stroke-width="1.5" id="path_2"/><path fill="#64748B" d="M10,9.49V9.5" fill-opacity="0" stroke-linejoin="round" stroke-linecap="round" stroke="#64748B" stroke-width="1.5" id="path_3"/></svg>