<svg id="vector" xmlns="http://www.w3.org/2000/svg" width="24" height="24" viewBox="0 0 24 24"><path fill="#64748B" d="M14,14.814V9.186C14,6.041 14,4.469 13.075,4.077C12.149,3.686 11.06,4.798 8.882,7.022C7.754,8.174 7.111,8.429 5.506,8.429C4.103,8.429 3.401,8.429 2.897,8.773C1.85,9.487 2.009,10.882 2.009,12C2.009,13.118 1.85,14.513 2.897,15.227C3.401,15.571 4.103,15.571 5.506,15.571C7.111,15.571 7.754,15.826 8.882,16.978C11.06,19.202 12.149,20.314 13.075,19.923C14,19.531 14,17.959 14,14.814Z" fill-opacity="0" stroke-linejoin="round" stroke-linecap="round" stroke="#64748B" stroke-width="1.5" id="path_0"/><path fill="#64748B" d="M17,9C17.625,9.82 18,10.863 18,12C18,13.137 17.625,14.18 17,15" fill-opacity="0" stroke-linejoin="round" stroke-linecap="round" stroke="#64748B" stroke-width="1.5" id="path_1"/><path fill="#64748B" d="M20,7C21.251,8.366 22,10.106 22,12C22,13.894 21.251,15.634 20,17" fill-opacity="0" stroke-linejoin="round" stroke-linecap="round" stroke="#64748B" stroke-width="1.5" id="path_2"/></svg>